<svg xmlns="http://www.w3.org/2000/svg" xmlns:xlink="http://www.w3.org/1999/xlink" width="321.918" height="141.636" viewBox="0 0 321.918 141.636"><defs><filter id="a" x="0" y="0" width="321.918" height="141.636" filterUnits="userSpaceOnUse"><feOffset dy="3" input="SourceAlpha"/><feGaussianBlur stdDeviation="3" result="b"/><feFlood flood-opacity="0.161"/><feComposite operator="in" in2="b"/><feComposite in="SourceGraphic"/></filter></defs><g transform="matrix(1, 0, 0, 1, 0, 0)" filter="url(#a)"><path d="M-4220.131,2242.739c-.233-.047-.389-.077-.469-.09v-1.28h.88a2.347,2.347,0,0,0,.94-.2,2.386,2.386,0,0,0,.86-.681,4.088,4.088,0,0,0,.681-1.321l-4.081-10.52h1.841l2.1,5.421c.094.253.2.563.33.93s.253.743.38,1.131.229.726.31,1.019h.122c.052-.213.119-.453.2-.719s.163-.543.251-.83.172-.561.259-.821.157-.49.209-.689l1.781-5.441h1.779l-3.56,10.22a13.976,13.976,0,0,1-.66,1.591,6.147,6.147,0,0,1-.8,1.251,3.107,3.107,0,0,1-1.061.81,3.426,3.426,0,0,1-1.46.29A4.306,4.306,0,0,1-4220.131,2242.739Zm-55.949.07a3.156,3.156,0,0,1-1.4-.311,2.489,2.489,0,0,1-1.021-.89,2.456,2.456,0,0,1-.38-1.38,2.176,2.176,0,0,1,.49-1.459,3.014,3.014,0,0,1,1.169-.861,1.888,1.888,0,0,1-.781-.669,1.712,1.712,0,0,1-.279-.95,1.562,1.562,0,0,1,.51-1.181,2.588,2.588,0,0,1,1.251-.639,3.2,3.2,0,0,1-1.07-1.129,3.052,3.052,0,0,1-.39-1.531,3.282,3.282,0,0,1,.47-1.761,3.166,3.166,0,0,1,1.44-1.2,5.721,5.721,0,0,1,2.369-.44,7.537,7.537,0,0,1,1.2.09,3.89,3.89,0,0,1,1,.29,2.522,2.522,0,0,0,1.049-.82,2.391,2.391,0,0,0,.43-1.02h1.74a2.467,2.467,0,0,1-.27,1.131,2.54,2.54,0,0,1-.729.88,2.593,2.593,0,0,1-1.121.47,3.189,3.189,0,0,1,.75,1.079,3.348,3.348,0,0,1,.251,1.3,3.334,3.334,0,0,1-.47,1.77,3.165,3.165,0,0,1-1.41,1.209,5.547,5.547,0,0,1-2.359.441h-1.641a1.651,1.651,0,0,0-.88.209.726.726,0,0,0-.34.669.77.77,0,0,0,.34.65,1.445,1.445,0,0,0,.88.25h4.28a2.516,2.516,0,0,1,1.9.771,2.723,2.723,0,0,1,.741,1.969,2.876,2.876,0,0,1-.43,1.551,3.1,3.1,0,0,1-1.2,1.1,3.745,3.745,0,0,1-1.79.411Zm-.58-3.85a1.41,1.41,0,0,0-.441,1.05,1.358,1.358,0,0,0,.441,1.059,1.541,1.541,0,0,0,1.079.4h3.78a1.852,1.852,0,0,0,.841-.19,1.5,1.5,0,0,0,.6-.53,1.332,1.332,0,0,0,.221-.74,1.458,1.458,0,0,0-.4-1.08,1.351,1.351,0,0,0-1-.4h-4.041A1.48,1.48,0,0,0-4276.66,2238.958Zm1.069-8.67a1.935,1.935,0,0,0-.629,1.52,2.145,2.145,0,0,0,.279,1.1,1.839,1.839,0,0,0,.841.741,3.362,3.362,0,0,0,1.419.26,2.765,2.765,0,0,0,1.9-.56,1.97,1.97,0,0,0,.62-1.539,1.946,1.946,0,0,0-.62-1.52,2.765,2.765,0,0,0-1.9-.56A2.81,2.81,0,0,0-4275.591,2230.289Zm-85.679,12.45c-.233-.047-.39-.077-.47-.09v-1.28h.88a2.351,2.351,0,0,0,.94-.2,2.4,2.4,0,0,0,.861-.681,4.059,4.059,0,0,0,.679-1.321l-4.08-10.52h1.839l2.1,5.421c.092.253.2.563.33.93s.254.743.381,1.131.229.726.31,1.019h.119c.055-.213.122-.453.2-.719s.163-.543.25-.83.173-.561.26-.821.156-.49.21-.689l1.78-5.441h1.78l-3.56,10.22a14.064,14.064,0,0,1-.661,1.591,6.109,6.109,0,0,1-.8,1.251,3.075,3.075,0,0,1-1.058.81,3.437,3.437,0,0,1-1.461.29A4.279,4.279,0,0,1-4361.27,2242.739Zm131.649-3.471a3.487,3.487,0,0,1-1.079-.46,2.292,2.292,0,0,1-.8-.89,3.036,3.036,0,0,1-.3-1.429,2.9,2.9,0,0,1,.52-1.78,3.386,3.386,0,0,1,1.45-1.09,8.185,8.185,0,0,1,2.21-.54,24.149,24.149,0,0,1,2.78-.15v-1.2a2.3,2.3,0,0,0-.2-1,1.358,1.358,0,0,0-.709-.65,3.65,3.65,0,0,0-1.45-.229,3.675,3.675,0,0,0-1.43.229,1.51,1.51,0,0,0-.74.59,1.559,1.559,0,0,0-.21.8v.3h-1.7a1.033,1.033,0,0,1-.02-.2v-.24a2.467,2.467,0,0,1,.53-1.611,3.216,3.216,0,0,1,1.49-.98,6.779,6.779,0,0,1,2.2-.33,5.646,5.646,0,0,1,2.21.38,2.867,2.867,0,0,1,1.34,1.08,3.032,3.032,0,0,1,.451,1.68v5.7a.66.66,0,0,0,.179.53.669.669,0,0,0,.44.15h.78v1.158a4.433,4.433,0,0,1-.621.21,3.035,3.035,0,0,1-.778.09,1.607,1.607,0,0,1-.861-.211,1.367,1.367,0,0,1-.521-.579,2.68,2.68,0,0,1-.239-.83h-.14a3.557,3.557,0,0,1-.91.869,4.376,4.376,0,0,1-1.231.571,5.247,5.247,0,0,1-1.479.2A4.934,4.934,0,0,1-4229.621,2239.268Zm2.021-4.84a3.91,3.91,0,0,0-1.75.641,1.532,1.532,0,0,0-.61,1.3,1.5,1.5,0,0,0,.241.881,1.451,1.451,0,0,0,.68.51,2.81,2.81,0,0,0,1.02.17,3.644,3.644,0,0,0,1.209-.2,3.209,3.209,0,0,0,1.01-.57,2.776,2.776,0,0,0,.7-.89,2.5,2.5,0,0,0,.26-1.141v-.879A18.039,18.039,0,0,0-4227.6,2234.428Zm-26.7,4.67a1.745,1.745,0,0,1-.661-.821,2.974,2.974,0,0,1-.2-1.089v-7.06h-1.36v-1.48h1.4l.32-2.939h1.4v2.939h1.98v1.48h-1.98v6.8a1.277,1.277,0,0,0,.181.751.787.787,0,0,0,.679.25h1.121v1.158a1.933,1.933,0,0,1-.48.16c-.187.041-.376.077-.57.11a3.259,3.259,0,0,1-.55.05A2.279,2.279,0,0,1-4254.3,2239.1Zm-48.27-.281a3.76,3.76,0,0,1-1.621-1.81,7.593,7.593,0,0,1-.549-3.1,7.584,7.584,0,0,1,.549-3.111,3.755,3.755,0,0,1,1.632-1.8,5.578,5.578,0,0,1,2.7-.589,4.946,4.946,0,0,1,2.479.57,3.591,3.591,0,0,1,1.51,1.7,6.887,6.887,0,0,1,.51,2.83v.84h-7.56a6.052,6.052,0,0,0,.369,2.071,2.275,2.275,0,0,0,.991,1.179,3.351,3.351,0,0,0,1.66.37,3.758,3.758,0,0,0,1.189-.17,2.352,2.352,0,0,0,.86-.489,2.084,2.084,0,0,0,.53-.761,2.787,2.787,0,0,0,.2-.959h1.721a4.216,4.216,0,0,1-.319,1.549,3.272,3.272,0,0,1-.88,1.21,4.177,4.177,0,0,1-1.421.781,6.074,6.074,0,0,1-1.919.28A5.389,5.389,0,0,1-4302.57,2238.818Zm1.09-8.629a2.232,2.232,0,0,0-.979,1.039,4.954,4.954,0,0,0-.421,1.8h5.7a4.76,4.76,0,0,0-.2-1.48,2.54,2.54,0,0,0-.569-.98,2.2,2.2,0,0,0-.861-.549,3.367,3.367,0,0,0-1.109-.17A3.283,3.283,0,0,0-4301.48,2230.189Zm-18.681,8.909a1.737,1.737,0,0,1-.66-.821,2.974,2.974,0,0,1-.2-1.089v-7.06h-1.36v-1.48h1.4l.321-2.939h1.4v2.939h1.98v1.48h-1.98v6.8a1.285,1.285,0,0,0,.18.751.788.788,0,0,0,.68.25h1.121v1.158a1.947,1.947,0,0,1-.48.16c-.187.041-.377.077-.57.11a3.259,3.259,0,0,1-.55.05A2.28,2.28,0,0,1-4320.161,2239.1Zm-14.749-.281a3.76,3.76,0,0,1-1.621-1.81,7.568,7.568,0,0,1-.55-3.1,7.559,7.559,0,0,1,.55-3.111,3.757,3.757,0,0,1,1.629-1.8,5.588,5.588,0,0,1,2.7-.589,4.95,4.95,0,0,1,2.48.57,3.6,3.6,0,0,1,1.51,1.7,6.912,6.912,0,0,1,.509,2.83v.84h-7.561a6.048,6.048,0,0,0,.371,2.071,2.269,2.269,0,0,0,.989,1.179,3.357,3.357,0,0,0,1.661.37,3.768,3.768,0,0,0,1.19-.17,2.36,2.36,0,0,0,.86-.489,2.1,2.1,0,0,0,.529-.761,2.788,2.788,0,0,0,.2-.959h1.72a4.207,4.207,0,0,1-.32,1.549,3.231,3.231,0,0,1-.881,1.21,4.142,4.142,0,0,1-1.419.781,6.084,6.084,0,0,1-1.92.28A5.385,5.385,0,0,1-4334.91,2238.818Zm1.089-8.629a2.247,2.247,0,0,0-.98,1.039,4.937,4.937,0,0,0-.418,1.8h5.7a4.76,4.76,0,0,0-.2-1.48,2.525,2.525,0,0,0-.572-.98,2.185,2.185,0,0,0-.858-.549,3.377,3.377,0,0,0-1.11-.17A3.282,3.282,0,0,0-4333.82,2230.189Zm-16.09,8.629a3.7,3.7,0,0,1-1.559-1.82,7.838,7.838,0,0,1-.53-3.09,7.766,7.766,0,0,1,.53-3.08,3.737,3.737,0,0,1,1.581-1.821,5.156,5.156,0,0,1,2.588-.6,5.627,5.627,0,0,1,1.871.28,3.331,3.331,0,0,1,1.31.821,3.346,3.346,0,0,1,.77,1.3,5.562,5.562,0,0,1,.25,1.741h-1.781a3.917,3.917,0,0,0-.249-1.51,1.743,1.743,0,0,0-.791-.88,2.994,2.994,0,0,0-1.42-.29,2.859,2.859,0,0,0-1.521.39,2.464,2.464,0,0,0-.98,1.229,6.035,6.035,0,0,0-.34,2.221v.419a6.093,6.093,0,0,0,.33,2.161,2.465,2.465,0,0,0,.97,1.26,2.881,2.881,0,0,0,1.56.4,2.878,2.878,0,0,0,1.451-.32,1.868,1.868,0,0,0,.8-.92,3.749,3.749,0,0,0,.25-1.44h1.721a5.205,5.205,0,0,1-.25,1.64,3.544,3.544,0,0,1-.77,1.321,3.5,3.5,0,0,1-1.32.87,5.337,5.337,0,0,1-1.92.31A5.07,5.07,0,0,1-4349.911,2238.818Zm-20.359,0a3.7,3.7,0,0,1-1.561-1.82,7.838,7.838,0,0,1-.53-3.09,7.766,7.766,0,0,1,.53-3.08,3.741,3.741,0,0,1,1.579-1.821,5.169,5.169,0,0,1,2.591-.6,5.625,5.625,0,0,1,1.87.28,3.342,3.342,0,0,1,1.311.821,3.37,3.37,0,0,1,.77,1.3,5.592,5.592,0,0,1,.25,1.741h-1.78a3.878,3.878,0,0,0-.25-1.51,1.728,1.728,0,0,0-.79-.88,2.992,2.992,0,0,0-1.42-.29,2.85,2.85,0,0,0-1.519.39,2.463,2.463,0,0,0-.981,1.229,6.035,6.035,0,0,0-.34,2.221v.419a6.07,6.07,0,0,0,.331,2.161,2.458,2.458,0,0,0,.97,1.26,2.879,2.879,0,0,0,1.559.4,2.873,2.873,0,0,0,1.45-.32,1.858,1.858,0,0,0,.8-.92,3.73,3.73,0,0,0,.25-1.44h1.72a5.233,5.233,0,0,1-.25,1.64,3.571,3.571,0,0,1-.77,1.321,3.524,3.524,0,0,1-1.321.87,5.337,5.337,0,0,1-1.92.31A5.063,5.063,0,0,1-4370.27,2238.818Zm-10.841,0a3.754,3.754,0,0,1-1.62-1.81,7.552,7.552,0,0,1-.55-3.1,7.543,7.543,0,0,1,.55-3.111,3.752,3.752,0,0,1,1.629-1.8,5.588,5.588,0,0,1,2.7-.589,4.945,4.945,0,0,1,2.479.57,3.6,3.6,0,0,1,1.51,1.7,6.887,6.887,0,0,1,.51,2.83v.84h-7.561a6.074,6.074,0,0,0,.37,2.071,2.271,2.271,0,0,0,.99,1.179,3.354,3.354,0,0,0,1.66.37,3.764,3.764,0,0,0,1.19-.17,2.36,2.36,0,0,0,.86-.489,2.1,2.1,0,0,0,.53-.761,2.787,2.787,0,0,0,.2-.959h1.72a4.2,4.2,0,0,1-.318,1.549,3.238,3.238,0,0,1-.881,1.21,4.143,4.143,0,0,1-1.42.781,6.074,6.074,0,0,1-1.919.28A5.386,5.386,0,0,1-4381.11,2238.818Zm1.09-8.629a2.243,2.243,0,0,0-.98,1.039,4.975,4.975,0,0,0-.42,1.8h5.7a4.729,4.729,0,0,0-.2-1.48,2.541,2.541,0,0,0-.57-.98,2.187,2.187,0,0,0-.859-.549,3.377,3.377,0,0,0-1.11-.17A3.283,3.283,0,0,0-4380.02,2230.189Zm142.561,8.978-1.36-5.44c-.054-.253-.122-.549-.2-.89s-.157-.686-.23-1.04-.136-.663-.189-.929h-.119c-.028.2-.071.453-.131.76s-.129.643-.209,1.01-.174.729-.279,1.089l-1.36,5.44h-1.8l-3.18-10.52h1.82l1.6,5.781c.08.281.156.584.23.91s.146.627.218.9.124.483.151.63h.119q.081-.381.189-.861t.2-.92c.059-.293.109-.52.149-.679l1.44-5.76h1.9l1.461,5.76c.053.226.112.49.18.79s.136.6.209.89a6.466,6.466,0,0,1,.15.781h.119c.054-.214.114-.463.181-.751s.139-.579.219-.88.154-.562.221-.79l1.579-5.8h1.681l-3.16,10.52Zm-22.44,0v-7.019a2.9,2.9,0,0,0-.17-1.081,1.631,1.631,0,0,0-.46-.659,1.723,1.723,0,0,0-.7-.341,3.819,3.819,0,0,0-.909-.1,2.958,2.958,0,0,0-1.4.351,2.627,2.627,0,0,0-1.05,1.019,3.257,3.257,0,0,0-.39,1.651v6.179h-1.759v-14.459h1.759v5.259h.14a3.759,3.759,0,0,1,.9-.88,3.757,3.757,0,0,1,1.109-.509,4.928,4.928,0,0,1,1.33-.17,4.187,4.187,0,0,1,1.75.341,2.532,2.532,0,0,1,1.179,1.1,4.18,4.18,0,0,1,.43,2.061v7.259Zm-22.461,0v-10.52h1.761v10.52Zm-6.639,0v-10.52h1.42l.159,1.741h.14a4.25,4.25,0,0,1,.44-.95,2.257,2.257,0,0,1,.76-.741,2.246,2.246,0,0,1,1.18-.29,2.812,2.812,0,0,1,.55.05,1.572,1.572,0,0,1,.37.11v1.621h-.659a2.726,2.726,0,0,0-1.17.229,2.15,2.15,0,0,0-.81.649,2.8,2.8,0,0,0-.471,1,4.931,4.931,0,0,0-.149,1.24v5.86Zm-19.561,0v-7.019a2.932,2.932,0,0,0-.169-1.081,1.632,1.632,0,0,0-.46-.659,1.712,1.712,0,0,0-.7-.341,3.831,3.831,0,0,0-.91-.1,2.957,2.957,0,0,0-1.4.351,2.621,2.621,0,0,0-1.049,1.019,3.232,3.232,0,0,0-.391,1.651v6.179h-1.76v-14.459h1.76v5.259h.141a3.754,3.754,0,0,1,.9-.88,3.751,3.751,0,0,1,1.11-.509,4.934,4.934,0,0,1,1.33-.17,4.19,4.19,0,0,1,1.75.341,2.54,2.54,0,0,1,1.181,1.1,4.2,4.2,0,0,1,.429,2.061v7.259Zm-32.419,0v-14.459h1.76v14.459Zm-48.14,0v-10.52h1.42l.159,1.741h.141a4.123,4.123,0,0,1,.44-.95,2.272,2.272,0,0,1,.759-.741,2.254,2.254,0,0,1,1.18-.29,2.787,2.787,0,0,1,.55.05,1.568,1.568,0,0,1,.371.11v1.621h-.66a2.726,2.726,0,0,0-1.169.229,2.145,2.145,0,0,0-.811.649,2.784,2.784,0,0,0-.469,1,4.908,4.908,0,0,0-.15,1.24v5.86Zm106.759-12.5v-1.959h1.761v1.959Zm13.012-21.323a4.167,4.167,0,0,1-1.623-3.186,3.631,3.631,0,0,1,1.122-2.655,4.486,4.486,0,0,1,3.3-1.121,12.832,12.832,0,0,1,1.8.148c.688.1,1.208.166,1.564.206a7.581,7.581,0,0,0-.679-2.891,14.432,14.432,0,0,0-1.563-2.625q-.944-1.268-1.77-2.213a38.6,38.6,0,0,1-3.629,5.783q-.327.419-.666.83a3.985,3.985,0,0,1-.484.7,29.743,29.743,0,0,1-5.132,5.073,8.755,8.755,0,0,1-5.251,2.065,5.51,5.51,0,0,1-3.57-1.328,8.082,8.082,0,0,1-2.448-3.628q-3.067,4.957-7.729,4.955a7.17,7.17,0,0,1-5.841-2.655,10.392,10.392,0,0,1-2.179-6.547,9.564,9.564,0,0,1-3.486.648,6.51,6.51,0,0,1-4.749-1.593,5.764,5.764,0,0,1-1.623-4.308,8.979,8.979,0,0,1,.177-1.769q.119-1.181.118-1.593,0-.946-.648-.945-.885,0-2.33,1.976a27.693,27.693,0,0,0-2.862,5.221,42.236,42.236,0,0,0-2.3,6.844,9.191,9.191,0,0,1-1.506,3.747,3.4,3.4,0,0,1-2.684.972,3.223,3.223,0,0,1-3.157-2.36,9.968,9.968,0,0,1-.443-1.557,22.945,22.945,0,0,1-2.477,1.911,12.154,12.154,0,0,1-6.9,2.006q-7.9,0-10.612-7.291c-.04.052-.083.1-.125.153a26.081,26.081,0,0,1-5.458,5.133,11.444,11.444,0,0,1-6.638,2.006,5.733,5.733,0,0,1-4.542-1.74,7.405,7.405,0,0,1-1.534-5.045,36.859,36.859,0,0,1,.825-5.9,30.582,30.582,0,0,0,.768-5.132c0-.63-.217-.945-.648-.945q-.768,0-2.154,1.976a31.631,31.631,0,0,0-2.833,5.221,40.41,40.41,0,0,0-2.33,6.844,9.214,9.214,0,0,1-1.5,3.747,3.4,3.4,0,0,1-2.686.972,3.222,3.222,0,0,1-3.155-2.36,9.994,9.994,0,0,1-.442-1.551,17.68,17.68,0,0,1-3.009,2.2,12.58,12.58,0,0,1-6.313,1.711q-4.9,0-7.493-2.507a8.655,8.655,0,0,1-2.6-6.52,75.205,75.205,0,0,1,.943-8.731q-2.95,8.674-7.462,13.217a14.266,14.266,0,0,1-10.414,4.542q-4.956,0-7.493-2.743a10.389,10.389,0,0,1-2.537-7.346,32.082,32.082,0,0,1,.766-6.313l3.658-16.873q.119-.473.562-2.6a22.651,22.651,0,0,0,.442-4.6,3.385,3.385,0,0,0-.56-2.124,1.82,1.82,0,0,0-1.5-.707,7.483,7.483,0,0,0-4.13,1.681,23.664,23.664,0,0,0-4.957,5.163,2.3,2.3,0,0,1-1.828,1.122,1.8,1.8,0,0,1-1.447-.8,2.862,2.862,0,0,1-.619-1.8,7.354,7.354,0,0,1,1.653-4.13q6.016-8.26,14.1-8.261a7.33,7.33,0,0,1,5.636,2.184q2.035,2.182,2.035,6.431a34.485,34.485,0,0,1-.414,5.546q-.412,2.536-1.416,6.9l-2.419,10.8q-.119.531-.414,1.888t-.472,2.567a16.458,16.458,0,0,0-.176,2.389,4.2,4.2,0,0,0,1.062,3.01,3.944,3.944,0,0,0,3.009,1.121q3.538,0,7.168-3.776t6.725-12.184a101.493,101.493,0,0,0,4.81-21.505,10.562,10.562,0,0,1,1.209-4.188q.8-1.183,3.1-1.182a3.716,3.716,0,0,1,3.068,1.24,6.393,6.393,0,0,1,1,4.012,29.947,29.947,0,0,1-.384,4.189q-.382,2.6-1.149,7.258-1.594,9.025-2.537,16.579a41.06,41.06,0,0,0-.474,5.074,5.5,5.5,0,0,0,1.093,3.687,3.659,3.659,0,0,0,2.92,1.269,6.581,6.581,0,0,0,3.8-1.3,19.659,19.659,0,0,0,2.992-2.718,47.718,47.718,0,0,1,2.171-13.448,4.439,4.439,0,0,1,1.741-2.508,6.137,6.137,0,0,1,3.393-.8,3.328,3.328,0,0,1,1.652.294,1.218,1.218,0,0,1,.472,1.122,22.467,22.467,0,0,1-.885,4.248q-.59,2.361-.943,4.13a42.214,42.214,0,0,0-.59,4.366,33.519,33.519,0,0,1,4.366-8.26,17.134,17.134,0,0,1,4.749-4.543,8.638,8.638,0,0,1,4.278-1.357q3.834,0,3.835,3.835a47.522,47.522,0,0,1-1.3,8.319,40.992,40.992,0,0,0-1.122,6.785q0,2.359,1.712,2.359a4.606,4.606,0,0,0,2.8-1.445,47.409,47.409,0,0,0,4.337-4.691,2.361,2.361,0,0,1,.978-.717q-.152-1.687-.151-3.589,0-2.6.176-5.251h-2.3a3.3,3.3,0,0,1-2.389-.649,2.911,2.911,0,0,1-.62-2.065q0-3.3,2.654-3.3h3.364a57.307,57.307,0,0,1,3.069-11.859,26.737,26.737,0,0,1,4.984-8.555q2.922-3.186,6.284-3.185a4.416,4.416,0,0,1,3.9,2.182,9.908,9.908,0,0,1,1.415,5.488q0,9.145-7.669,15.93h6.608a1.872,1.872,0,0,1,1.358.413,2.172,2.172,0,0,1,.413,1.534q0,4.072-6.668,4.071h-7.2q-.119,2.951-.118,4.6,0,6.136,1.446,8.614a4.907,4.907,0,0,0,4.572,2.477,7.042,7.042,0,0,0,4.484-1.533,29.434,29.434,0,0,0,3.2-3.035,47.692,47.692,0,0,1,2.171-13.426,4.44,4.44,0,0,1,1.741-2.508,6.135,6.135,0,0,1,3.393-.8,3.336,3.336,0,0,1,1.652.294,1.219,1.219,0,0,1,.472,1.122,22.484,22.484,0,0,1-.886,4.248q-.59,2.361-.944,4.13a42.244,42.244,0,0,0-.589,4.366,33.535,33.535,0,0,1,4.366-8.26,17.128,17.128,0,0,1,4.75-4.543,8.636,8.636,0,0,1,4.277-1.357q3.836,0,3.835,3.835a29.761,29.761,0,0,1-.53,3.717,21.616,21.616,0,0,0-.472,2.951q0,2.065,1.476,2.065a4.344,4.344,0,0,0,2.388-.981,19.788,19.788,0,0,1,1.034-2.353,18.619,18.619,0,0,1,5.811-6.785,13.106,13.106,0,0,1,7.7-2.566,2.3,2.3,0,0,1,1.741.5,4.21,4.21,0,0,1,.736,1.8,13.81,13.81,0,0,1,2.6-.236q2.89,0,2.89,2.065a44.438,44.438,0,0,1-.884,5.9,57.164,57.164,0,0,0-1.358,9.44,2.143,2.143,0,0,0,.443,1.416,1.422,1.422,0,0,0,1.149.53,4.483,4.483,0,0,0,2.714-1.445q.518-.471,1.155-1.132a73.908,73.908,0,0,0,4.626-6.273q1-1.712,2.36-4.573t2.655-5.929q1.119-2.6,4.661-2.6a6.212,6.212,0,0,1,2.3.294.985.985,0,0,1,.649.943,4.418,4.418,0,0,1-.236,1.122,8.52,8.52,0,0,1-.65,1.534,8.423,8.423,0,0,0-1.062,3.6,3.919,3.919,0,0,0,.621,1.947,22.033,22.033,0,0,0,1.917,2.655,37.364,37.364,0,0,1,2.861,4.219,7.66,7.66,0,0,1,.974,3.806,15.881,15.881,0,0,1-.118,1.652q2.457-.953,5.636-4.587l.029-2.317a102.124,102.124,0,0,1,1.859-18.939,56.9,56.9,0,0,1,5.485-16.549q3.629-6.7,8.7-6.7a5.184,5.184,0,0,1,4.4,2.331,10.107,10.107,0,0,1,1.681,6.047,25.855,25.855,0,0,1-3.481,12.361q-3.48,6.4-11.328,14.956-.179,3.067-.177,6.313a33.909,33.909,0,0,1,4.336-8.172,16.938,16.938,0,0,1,4.721-4.513,8.631,8.631,0,0,1,4.276-1.357q3.836,0,3.836,3.835a47.311,47.311,0,0,1-1.3,8.319,41.042,41.042,0,0,0-1.12,6.785q0,2.359,1.71,2.359a4.61,4.61,0,0,0,2.8-1.445q.883-.788,2.093-2.111a17.2,17.2,0,0,1-.176-2.521,17.082,17.082,0,0,1,1.71-7.582,14.022,14.022,0,0,1,4.751-5.576,11.932,11.932,0,0,1,6.872-2.065,7.478,7.478,0,0,1,5.488,2.035,7.4,7.4,0,0,1,2.065,5.517,9.541,9.541,0,0,1-2.92,6.991q-2.92,2.921-9.884,4.632,1.477,2.713,5.606,2.714a12.915,12.915,0,0,0,6.048-1.859,20.006,20.006,0,0,0,3.277-2.241,19.178,19.178,0,0,1,2-8.409,18.1,18.1,0,0,1,5.487-6.578,16.275,16.275,0,0,1,7.788-3.1,75.743,75.743,0,0,1,4.278-19.411q1.844-4.827,4.4-6.833a7.54,7.54,0,0,1-3.2.735,13.151,13.151,0,0,1-10.986-8.564c-3.563-9.485,3.905-25.922,4.474-23.975,2.453,8.352,10.662,9.141,13.269,15.141,1.957,4.509,1.875,10.551-1.463,14.69,0,0,.043.123.687.662a6.319,6.319,0,0,1,1.218-.117q.1,0,.2,0a.607.607,0,0,1,.153-.357,20.6,20.6,0,0,1,3.317-3,7.827,7.827,0,0,1-.391-3.6,13.152,13.152,0,0,1,10.009-9.686c9.891-2.209,25.127,7.474,23.119,7.767-8.612,1.266-10.535,9.285-16.84,11.032a15.8,15.8,0,0,1-4.2.559,13.825,13.825,0,0,1-10.141-4.052s-.32.065-2.412,2.21a6.212,6.212,0,0,1,1.405,1.419q1.681,2.3,1.681,6.962a44.942,44.942,0,0,1-3.186,15.162,118.987,118.987,0,0,1-8.438,17.878,78.945,78.945,0,0,0,1.889,9.559,5.4,5.4,0,0,1,.235,1.593q0,2.653-3.243,2.656a3.733,3.733,0,0,1-2.8-1,9.576,9.576,0,0,1-1.8-3.776l-.059-.237a14.234,14.234,0,0,1-4.042,3.718,8.822,8.822,0,0,1-4.159.943,7.509,7.509,0,0,1-5.93-2.683,8.921,8.921,0,0,1-.968-1.353,27.861,27.861,0,0,1-2.808,1.794,17.106,17.106,0,0,1-8.525,2.242q-6.2,0-9.618-3.363a10.775,10.775,0,0,1-1.172-1.36,27.938,27.938,0,0,1-3.282,2.717,11.08,11.08,0,0,1-6.52,2.006,5.736,5.736,0,0,1-4.543-1.74,7.405,7.405,0,0,1-1.534-5.045,36.914,36.914,0,0,1,.827-5.9,30.531,30.531,0,0,0,.766-5.132c0-.63-.215-.945-.648-.945q-.767,0-2.183,1.976a28.94,28.94,0,0,0-2.831,5.221,42.382,42.382,0,0,0-2.3,6.844q-1.119,4.72-5.546,4.719a2.282,2.282,0,0,1-2.331-1.268,7.926,7.926,0,0,1-.485-2.448,12.13,12.13,0,0,1-2.345,1.563,16.005,16.005,0,0,1-6.638,1.446,8.373,8.373,0,0,1-5.6,2.006A6.925,6.925,0,0,1-4269.349,2205.345Zm80.151-17.582a13.647,13.647,0,0,0-2.124,7.435q0,4.306,2.951,4.306a3.57,3.57,0,0,0,2.271-.885,16.689,16.689,0,0,0,2.8-3.422,65.661,65.661,0,0,1-.59-8.909q0-1.83.059-2.833A9.465,9.465,0,0,0-4189.2,2187.763Zm-102.985-2.861a12.531,12.531,0,0,0-3.333,4.749,16,16,0,0,0-1.238,6.254,4.183,4.183,0,0,0,.737,2.714,2.507,2.507,0,0,0,2.036.885,3.24,3.24,0,0,0,2.478-1.534,9.964,9.964,0,0,0,1.711-4.071l2.183-10.856A7.153,7.153,0,0,0-4292.182,2184.9Zm79.12,1.092a11.829,11.829,0,0,0-1.5,6.136v.118a13.42,13.42,0,0,0,5.487-2.478,4.873,4.873,0,0,0,2.006-3.835,2.567,2.567,0,0,0-.619-1.8,2.166,2.166,0,0,0-1.683-.678Q-4211.558,2183.456-4213.062,2185.994Zm38.467-21.772a161.4,161.4,0,0,0-2.035,19q6.549-14.159,6.548-23.01a12.289,12.289,0,0,0-.383-3.481q-.382-1.238-.914-1.239Q-4173.089,2155.491-4174.6,2164.222Zm-62.981-5.635a51.44,51.44,0,0,0-2.508,8.2,109.516,109.516,0,0,0-1.976,11.24,42.241,42.241,0,0,0,6.047-9.382,21.9,21.9,0,0,0,2.39-9.2,7.907,7.907,0,0,0-.413-2.891q-.415-1-1.181-1Q-4236.28,2155.549-4237.577,2158.587Zm-101.805,2.95a31.549,31.549,0,0,0-2.065,6.136,82.014,82.014,0,0,0-1.622,8.7,20.126,20.126,0,0,0,5.22-6.755,16.378,16.378,0,0,0,1.741-6.814q0-3.482-1.3-3.481Q-4338.29,2159.326-4339.382,2161.538Zm156.057-26.274c1.3,4.23,3.693,10,7.818,13.942a2.621,2.621,0,0,0,1.383-1.212,42.793,42.793,0,0,1-8.666-12.93.269.269,0,0,0-.255-.172A.283.283,0,0,0-4183.325,2135.264Zm33.072,4.464c-4.371.7-10.419,2.267-14.9,5.8a2.632,2.632,0,0,0,1.008,1.539,42.8,42.8,0,0,1,14.012-6.783.287.287,0,0,0-.07-.562A.3.3,0,0,0-4150.253,2139.728Z" transform="translate(4447.06 -2113.17)" fill="#fff"/></g></svg>