<?xml version="1.0" encoding="utf-8"?>
<!-- Generator: Adobe Illustrator 26.0.1, SVG Export Plug-In . SVG Version: 6.00 Build 0)  -->
<svg version="1.1" id="Layer_1" xmlns="http://www.w3.org/2000/svg" xmlns:xlink="http://www.w3.org/1999/xlink" x="0px" y="0px"
	 viewBox="0 0 774 167" style="enable-background:new 0 0 774 167;" xml:space="preserve">
<style type="text/css">
	.st0{fill:#FFFFFF;}
</style>
<path class="st0" d="M87.1,81.1v78H63.2v-10.6c-2.4,3.4-5.7,6.2-9.9,8.4c-4.1,2-8.7,3.1-13.7,3.1c-6,0-11.2-1.3-15.8-3.9
	c-4.6-2.7-8.1-6.6-10.6-11.6c-2.5-5-3.8-10.9-3.8-17.7V81.1h23.8v42.3c0,5.2,1.4,9.3,4.1,12.2c2.7,2.9,6.3,4.3,10.9,4.3
	c4.7,0,8.3-1.4,11-4.3c2.7-2.9,4.1-6.9,4.1-12.2V81.1H87.1z"/>
<path class="st0" d="M146.2,80.3c9.1,0,16.4,3,21.8,8.9c5.5,5.9,8.2,14,8.2,24.3v45.5h-23.7v-42.3c0-5.2-1.4-9.3-4.1-12.2
	c-2.7-2.9-6.3-4.3-10.9-4.3s-8.2,1.4-10.9,4.3c-2.7,2.9-4.1,6.9-4.1,12.2v42.3H98.7v-78h23.9v10.3c2.4-3.4,5.7-6.1,9.8-8.1
	C136.4,81.3,141,80.3,146.2,80.3z"/>
<path class="st0" d="M230.7,138.8v20.3h-12.2c-8.7,0-15.4-2.1-20.3-6.3c-4.8-4.3-7.3-11.2-7.3-20.8v-31h-9.5V81.1h9.5v-19h23.9v19
	h15.6v19.8h-15.6v31.3c0,2.3,0.6,4,1.7,5c1.1,1,3,1.5,5.6,1.5H230.7z"/>
<path class="st0" d="M263.7,94.1c2.8-4.3,6.3-7.6,10.5-10.1c4.2-2.5,8.8-3.8,14-3.8v25.3h-6.6c-6,0-10.4,1.3-13.4,3.9
	c-3,2.5-4.5,7-4.5,13.4v36.2h-23.9v-78h23.9V94.1z"/>
<path class="st0" d="M290.6,119.9c0-8,1.5-15,4.5-21.1c3.1-6.1,7.2-10.7,12.4-14c5.2-3.3,11-4.9,17.5-4.9c5.5,0,10.3,1.1,14.4,3.4
	c4.2,2.2,7.4,5.2,9.6,8.8v-11h23.9v78H349v-11c-2.3,3.6-5.6,6.6-9.8,8.8c-4.1,2.2-8.9,3.4-14.4,3.4c-6.3,0-12.1-1.6-17.3-4.9
	c-5.2-3.4-9.4-8.1-12.4-14.1C292.1,135,290.6,128,290.6,119.9z M349,120.1c0-6-1.7-10.7-5-14.1c-3.3-3.4-7.3-5.2-12-5.2
	s-8.8,1.7-12.2,5.2c-3.3,3.4-4.9,8-4.9,14c0,6,1.6,10.7,4.9,14.3c3.4,3.4,7.4,5.2,12.2,5.2s8.8-1.7,12-5.2
	C347.3,130.7,349,126,349,120.1z"/>
<path class="st0" d="M416.3,160.2c-6.8,0-12.9-1.2-18.2-3.5c-5.3-2.3-9.5-5.5-12.6-9.5c-3.1-4.1-4.8-8.7-5.2-13.7H404
	c0.3,2.7,1.5,4.9,3.8,6.6c2.2,1.7,5,2.5,8.2,2.5c3,0,5.3-0.6,6.8-1.7c1.7-1.2,2.5-2.7,2.5-4.6c0-2.2-1.2-3.9-3.5-4.9
	c-2.3-1.1-6.1-2.3-11.3-3.6c-5.6-1.3-10.2-2.7-14-4.1c-3.7-1.5-6.9-3.8-9.6-6.8c-2.7-3.2-4.1-7.4-4.1-12.7c0-4.5,1.2-8.5,3.6-12.2
	c2.5-3.7,6.1-6.7,10.9-8.8c4.8-2.1,10.6-3.2,17.2-3.2c9.8,0,17.5,2.4,23.1,7.3c5.7,4.8,8.9,11.3,9.8,19.3h-22.1
	c-0.4-2.7-1.6-4.8-3.6-6.4c-2-1.6-4.6-2.4-7.8-2.4c-2.8,0-4.9,0.6-6.4,1.7c-1.5,1-2.2,2.5-2.2,4.3c0,2.2,1.2,3.9,3.5,5
	c2.4,1.1,6.1,2.2,11.2,3.4c5.8,1.5,10.5,3,14.1,4.5c3.6,1.4,6.8,3.7,9.5,7c2.8,3.2,4.2,7.5,4.3,12.9c0,4.6-1.3,8.7-3.9,12.3
	c-2.5,3.5-6.2,6.3-11,8.4C428.2,159.2,422.6,160.2,416.3,160.2z"/>
<path class="st0" d="M503.4,80.3c8.9,0,16.1,3,21.5,8.9c5.4,5.9,8.1,14,8.1,24.3v45.5h-23.8v-42.3c0-5.2-1.4-9.3-4.1-12.2
	c-2.7-2.9-6.3-4.3-10.9-4.3c-4.6,0-8.2,1.4-10.9,4.3c-2.7,2.9-4.1,6.9-4.1,12.2v42.3h-23.9V55.7h23.9v35.9c2.4-3.4,5.7-6.2,9.9-8.2
	C493.5,81.3,498.2,80.3,503.4,80.3z"/>
<path class="st0" d="M618.9,118.8c0,2.2-0.1,4.6-0.4,7h-54.1c0.4,4.8,1.9,8.6,4.6,11.2c2.8,2.5,6.2,3.8,10.2,3.8
	c6,0,10.1-2.5,12.4-7.5h25.4c-1.3,5.1-3.7,9.7-7.1,13.8c-3.4,4.1-7.6,7.3-12.7,9.6c-5.1,2.3-10.9,3.5-17.2,3.5
	c-7.6,0-14.4-1.6-20.4-4.9c-6-3.3-10.6-7.9-14-14c-3.4-6.1-5-13.1-5-21.2s1.6-15.2,4.9-21.2c3.4-6.1,8-10.7,14-14
	c6-3.3,12.8-4.9,20.5-4.9c7.5,0,14.2,1.6,20.1,4.8c5.9,3.2,10.4,7.7,13.7,13.6C617.2,104.2,618.9,111,618.9,118.8z M594.5,112.5
	c0-4.1-1.4-7.4-4.2-9.8c-2.8-2.4-6.3-3.6-10.5-3.6c-4,0-7.4,1.2-10.2,3.5c-2.7,2.3-4.4,5.6-5,9.9H594.5z"/>
<path class="st0" d="M625.4,119.9c0-8,1.5-15,4.5-21.1c3.1-6.1,7.2-10.7,12.4-14c5.2-3.3,11-4.9,17.5-4.9c5.1,0,9.8,1.1,14,3.2
	c4.3,2.1,7.6,5,10.1,8.7V55.7h23.9v103.4h-23.9v-11.2c-2.2,3.7-5.4,6.7-9.6,8.9c-4.1,2.2-8.9,3.4-14.4,3.4c-6.4,0-12.2-1.6-17.5-4.9
	c-5.2-3.4-9.4-8.1-12.4-14.1C626.9,135,625.4,128,625.4,119.9z M683.8,120.1c0-6-1.7-10.7-5-14.1c-3.3-3.4-7.3-5.2-12-5.2
	c-4.7,0-8.8,1.7-12.2,5.2c-3.3,3.4-4.9,8-4.9,14c0,6,1.6,10.7,4.9,14.3c3.4,3.4,7.4,5.2,12.2,5.2c4.8,0,8.8-1.7,12-5.2
	C682.1,130.7,683.8,126,683.8,120.1z"/>
<circle class="st0" cx="730" cy="147.5" r="12.1"/>
<path class="st0" d="M537.8,49.6c-14.1,8-19.3,23.5-19.3,23.5s17.8,2.5,31.9-5.5c14.1-8,19.3-23.5,19.3-23.5S552,41.5,537.8,49.6z"
	/>
<path class="st0" d="M505.3,34.2c-5.3,18.5,3.3,36,3.3,36s17.1-12.6,22.4-31.2c5.3-18.5-3.3-36-3.3-36S510.5,15.6,505.3,34.2z"/>
</svg>
